<?xml version="1.0"?>
<svg xmlns="http://www.w3.org/2000/svg" xmlns:xlink="http://www.w3.org/1999/xlink" id="Layer_1" data-name="Layer 1" viewBox="0 0 128 128" width="512" height="512"><defs><linearGradient id="linear-gradient" x1="105.886" y1="105.865" x2="22.135" y2="22.113" gradientUnits="userSpaceOnUse"><stop offset="0" stop-color="#1bce89"/><stop offset="1" stop-color="#4e8ed5"/></linearGradient></defs><title>INTERNET</title><path d="M111.848,98.888a59.166,59.166,0,0,0-.175-70.074c-.01-.014-.016-.029-.026-.043s-.012-.012-.018-.019A59.39,59.39,0,0,0,97.193,14.914a1.75,1.75,0,1,0-1.963,2.9,55.908,55.908,0,0,1,12.546,11.667,56.928,56.928,0,0,1-13.292,6.8C90.925,24.784,85.227,15.54,78.307,10.1a55.4,55.4,0,0,1,8.52,3.018,1.75,1.75,0,0,0,1.435-3.192A59.259,59.259,0,0,0,16.518,28.6a1.727,1.727,0,0,0-.164.173,1.747,1.747,0,0,0-.2.34,59.075,59.075,0,0,0,0,69.776,1.425,1.425,0,0,0,.365.513,59.192,59.192,0,0,0,94.979-.02,1.7,1.7,0,0,0,.149-.153A1.747,1.747,0,0,0,111.848,98.888ZM8.294,65.75H29.518a95.362,95.362,0,0,0,3.026,22.563,60.5,60.5,0,0,0-14.376,7.375A55.405,55.405,0,0,1,8.294,65.75Zm9.873-33.437a60.5,60.5,0,0,0,14.376,7.375A95.362,95.362,0,0,0,29.518,62.25H8.294A55.405,55.405,0,0,1,18.168,32.313ZM33.016,65.75H36a1.75,1.75,0,0,0,0-3.5H33.016a93.5,93.5,0,0,1,2.8-21.459A95.037,95.037,0,0,0,64,44.89a95.037,95.037,0,0,0,28.182-4.1,93.5,93.5,0,0,1,2.8,21.459H54.917a1.75,1.75,0,0,0,0,3.5h40.07A93.451,93.451,0,0,1,92.161,87.2,95.051,95.051,0,0,0,64,83.11a95.037,95.037,0,0,0-28.182,4.1A93.5,93.5,0,0,1,33.016,65.75Zm65.47,0h21.219a55.405,55.405,0,0,1-9.873,29.938,60.469,60.469,0,0,0-14.348-7.365A96.919,96.919,0,0,0,98.486,65.75ZM109.855,32.3A55.674,55.674,0,0,1,119.7,62.25H98.482a95.362,95.362,0,0,0-3.026-22.563A60.465,60.465,0,0,0,109.855,32.3ZM91.236,37.373A91.85,91.85,0,0,1,64,41.39a91.85,91.85,0,0,1-27.236-4.017C42.028,20.037,52.262,8.25,64,8.25S85.972,20.037,91.236,37.373ZM49.661,10.128C42.756,15.569,37.069,24.8,33.515,36.275A56.971,56.971,0,0,1,20.255,29.5,55.874,55.874,0,0,1,49.661,10.128ZM20.255,98.5a56.971,56.971,0,0,1,13.26-6.774c3.554,11.474,9.24,20.706,16.146,26.147A55.874,55.874,0,0,1,20.255,98.5ZM78.5,117.826a38.265,38.265,0,0,0,7.535-8.113,1.75,1.75,0,0,0-2.862-2.014C77.627,115.583,71,119.75,64,119.75c-11.738,0-21.972-11.787-27.236-29.123A91.85,91.85,0,0,1,64,86.61a91.867,91.867,0,0,1,27.205,4.008,68.345,68.345,0,0,1-3.784,9.787,1.75,1.75,0,0,0,3.151,1.522A71.688,71.688,0,0,0,94.52,91.737,56.936,56.936,0,0,1,107.745,98.5,55.877,55.877,0,0,1,78.5,117.826ZM49.25,64a1.75,1.75,0,0,1-1.75,1.75H43.375a1.75,1.75,0,0,1,0-3.5H47.5A1.75,1.75,0,0,1,49.25,64Z" style="fill:url(#linear-gradient)"/></svg>
