<svg id="Layer_1" height="512" viewBox="0 0 128 128" width="512" xmlns="http://www.w3.org/2000/svg" xmlns:xlink="http://www.w3.org/1999/xlink" data-name="Layer 1"><linearGradient id="linear-gradient" gradientUnits="userSpaceOnUse" x1="118.315" x2="9.685" y1="118.315" y2="9.685"><stop offset="0" stop-color="#30ade0"/><stop offset="1" stop-color="#85c646"/></linearGradient><path d="m35.583 52.053a1.75 1.75 0 0 0 1.75 1.75h53.334a1.75 1.75 0 0 0 0-3.5h-3.506v-26.253a1.75 1.75 0 0 0 -1.75-1.75h-6.811v-6.051a1.751 1.751 0 0 0 -1.75-1.75h-8.571a1.75 1.75 0 0 0 -1.75 1.75v21.085h-5.065v-13.284a1.75 1.75 0 0 0 -1.75-1.75h-8.567a1.751 1.751 0 0 0 -1.75 1.75v6.59h-6.815a1.75 1.75 0 0 0 -1.75 1.75v17.91h-3.5a1.749 1.749 0 0 0 -1.749 1.753zm48.078-26.253v24.5h-5.061v-24.5zm-13.632-7.8h5.071v32.3h-5.071zm-3.5 22.835v9.465h-5.065v-9.466zm-13.629-15.035h5.067v24.5h-5.067zm-8.565 8.34h5.065v16.16h-5.068zm16.128 53.7a1.749 1.749 0 0 1 -1.75 1.75h-32.232a1.75 1.75 0 1 1 0-3.5h32.229a1.75 1.75 0 0 1 1.75 1.749zm0 9.474a1.75 1.75 0 0 1 -1.75 1.75h-32.234a1.75 1.75 0 0 1 0-3.5h32.227a1.75 1.75 0 0 1 1.75 1.749zm0 9.475a1.75 1.75 0 0 1 -1.75 1.75h-32.234a1.75 1.75 0 0 1 0-3.5h32.227a1.75 1.75 0 0 1 1.75 1.749zm0-37.9a1.75 1.75 0 0 1 -1.75 1.75h-32.232a1.75 1.75 0 0 1 0-3.5h32.229a1.749 1.749 0 0 1 1.75 1.752zm-35.734 9.475a1.75 1.75 0 0 1 1.75-1.75h32.227a1.75 1.75 0 0 1 0 3.5h-32.227a1.749 1.749 0 0 1 -1.75-1.75zm89.671-24.614v5.75a1.75 1.75 0 0 1 -3.5 0v-5.75a1.75 1.75 0 0 1 3.5 0zm0-47.25v39.165a1.75 1.75 0 0 1 -3.5 0v-37.415h-66.025a1.75 1.75 0 0 1 0-3.5h67.779a1.75 1.75 0 0 1 1.746 1.75zm0 61.5v53.5a1.75 1.75 0 0 1 -1.75 1.75h-97.304a1.75 1.75 0 0 1 -1.75-1.75v-115a1.75 1.75 0 0 1 1.75-1.75h19.4a1.75 1.75 0 0 1 0 3.5h-17.646v111.5h93.8v-51.75a1.75 1.75 0 0 1 3.5 0zm-23.324 3.125a17.6 17.6 0 0 0 -5.342-.837h-.022c-.015 0-.028 0-.043 0a17.553 17.553 0 1 0 12.414 30c.014-.013.03-.022.043-.036.032-.032.055-.068.084-.1a17.634 17.634 0 0 0 5.043-12.184c0-.043.013-.084.013-.128a1.671 1.671 0 0 0 -.022-.213 17.405 17.405 0 0 0 -1.92-7.812 17.44 17.44 0 0 0 -10.248-8.69zm7.135 10.289a14.053 14.053 0 0 1 1.437 4.675h-12.186v-12.189a14.194 14.194 0 0 1 2.545.557 13.959 13.959 0 0 1 8.204 6.957zm-6.073 18.924a14.054 14.054 0 1 1 -8.176-26.445v13.946a1.736 1.736 0 0 0 .035.346 1.787 1.787 0 0 0 .066.219c.013.036.019.073.034.108a1.838 1.838 0 0 0 .126.236c.013.021.021.044.035.064a1.744 1.744 0 0 0 .218.266l9.856 9.857a14.136 14.136 0 0 1 -2.194 1.403zm4.662-3.882-6.866-6.867h9.716a13.877 13.877 0 0 1 -2.85 6.867z" fill="url(#linear-gradient)"/></svg>