<svg id="Layer_1" height="512" viewBox="0 0 128 128" width="512" xmlns="http://www.w3.org/2000/svg" xmlns:xlink="http://www.w3.org/1999/xlink" data-name="Layer 1"><linearGradient id="linear-gradient" gradientUnits="userSpaceOnUse" x1="114.771" x2="13.221" y1="114.771" y2="13.221"><stop offset="0" stop-color="#30ade0"/><stop offset="1" stop-color="#85c646"/></linearGradient><path d="m35.42 18.86v12.352a3.031 3.031 0 0 1 .708.708h8.039a1.75 1.75 0 0 1 0 3.5h-8.039a3.018 3.018 0 1 1 -4.208-4.208v-12.352a1.75 1.75 0 0 1 3.5 0zm87.83 75.47a29.569 29.569 0 0 1 -.361 4.581 1.751 1.751 0 0 1 -1.729 1.479h-5.6a22.255 22.255 0 0 1 -.827 2.374l1.569 1.569c.037.037.072.075.1.114l2.527 2.526a1.749 1.749 0 0 1 .266 2.132 29.126 29.126 0 0 1 -8.292 8.91 1.748 1.748 0 0 1 -2.239-.2l-3.986-3.985a21.678 21.678 0 0 1 -2.887 1.273v5.785a1.749 1.749 0 0 1 -1.378 1.71 28.779 28.779 0 0 1 -12.164 0 1.749 1.749 0 0 1 -1.378-1.71v-5.785a21.678 21.678 0 0 1 -2.887-1.273l-3.984 3.987a1.748 1.748 0 0 1 -2.239.2 29.126 29.126 0 0 1 -8.292-8.91 1.75 1.75 0 0 1 .266-2.132l2.527-2.527c.033-.039.067-.077.1-.113l1.57-1.57a22.548 22.548 0 0 1 -.828-2.373h-5.604a1.751 1.751 0 0 1 -1.729-1.479 29.569 29.569 0 0 1 -.361-4.581 28.805 28.805 0 0 1 1.012-7.581 1.75 1.75 0 0 1 1.688-1.291h6.007q.335-.757.713-1.475l-3.987-3.985a1.748 1.748 0 0 1 -.2-2.237 28.969 28.969 0 0 1 8.922-8.3 1.747 1.747 0 0 1 2.131.267l4.2 4.2q.481-.2.974-.374v-5.786a1.749 1.749 0 0 1 1.379-1.71 28.922 28.922 0 0 1 12.162 0 1.749 1.749 0 0 1 1.379 1.71v5.786q.492.174.975.374l4.2-4.2a1.751 1.751 0 0 1 2.131-.267 28.974 28.974 0 0 1 8.923 8.3 1.749 1.749 0 0 1 -.2 2.237l-3.987 3.988q.378.717.713 1.475h6.007a1.75 1.75 0 0 1 1.688 1.289 28.805 28.805 0 0 1 1.01 7.578zm-3.5 0a25.33 25.33 0 0 0 -.573-5.37h-5.807a1.75 1.75 0 0 1 -1.635-1.125 19.448 19.448 0 0 0 -1.577-3.231 1.749 1.749 0 0 1 .255-2.151l3.863-3.864a25.525 25.525 0 0 0 -5.827-5.394l-4.061 4.062a1.753 1.753 0 0 1 -2 .338 17.477 17.477 0 0 0 -2.83-1.082 1.752 1.752 0 0 1 -1.268-1.683v-5.609a25.529 25.529 0 0 0 -7.92 0v5.609a1.751 1.751 0 0 1 -1.27 1.683 17.488 17.488 0 0 0 -2.828 1.087 1.753 1.753 0 0 1 -2-.338l-4.061-4.062a25.544 25.544 0 0 0 -5.827 5.394l3.863 3.864a1.749 1.749 0 0 1 .253 2.142 19.448 19.448 0 0 0 -1.577 3.231 1.749 1.749 0 0 1 -1.633 1.129h-5.807a25.4 25.4 0 0 0 -.573 5.37c0 .846.043 1.7.129 2.56h5.431a1.752 1.752 0 0 1 1.711 1.381 18.594 18.594 0 0 0 1.419 4.129 1.751 1.751 0 0 1 -.341 1.993l-2.319 2.307c-.033.039-.067.077-.1.113l-1.64 1.641a25.715 25.715 0 0 0 5.393 5.817l3.863-3.862a1.749 1.749 0 0 1 2.151-.256 18.17 18.17 0 0 0 4.5 1.99 1.75 1.75 0 0 1 1.269 1.683v5.608a25.347 25.347 0 0 0 7.92 0v-5.604a1.751 1.751 0 0 1 1.27-1.683 18.2 18.2 0 0 0 4.5-1.99 1.747 1.747 0 0 1 2.15.256l3.863 3.862a25.715 25.715 0 0 0 5.393-5.817l-1.641-1.641c-.037-.036-.072-.075-.105-.114l-2.315-2.315a1.749 1.749 0 0 1 -.34-1.994 18.65 18.65 0 0 0 1.417-4.123 1.751 1.751 0 0 1 1.711-1.381h5.431c.077-.858.12-1.714.12-2.56zm-25.42-9.32a9.3 9.3 0 0 1 8.276 5.029 1.75 1.75 0 0 0 3.106-1.613 12.821 12.821 0 1 0 -4.789 16.9 1.75 1.75 0 0 0 -1.8-3 9.321 9.321 0 1 1 -4.793-17.316zm11.208 9.45a1.748 1.748 0 0 0 -2.017 1.434 9.249 9.249 0 0 1 -.659 2.195 1.75 1.75 0 1 0 3.2 1.414 12.749 12.749 0 0 0 .909-3.025 1.751 1.751 0 0 0 -1.433-2.018zm-51.419-81.239a1.7 1.7 0 0 0 -.134-.11 28.925 28.925 0 0 0 -26.11-7.78 1.75 1.75 0 0 0 .7 3.43 25.379 25.379 0 0 1 3.346-.444v2.266a1.75 1.75 0 0 0 3.5 0v-2.266a25.3 25.3 0 0 1 14.932 6.2l-1.594 1.594a1.75 1.75 0 1 0 2.474 2.475l1.594-1.594a25.3 25.3 0 0 1 6.2 14.931h-2.27a1.75 1.75 0 1 0 0 3.5h2.266a25.308 25.308 0 0 1 -6.2 14.931l-1.594-1.593a1.749 1.749 0 0 0 -2.474 2.474l1.593 1.594a25.308 25.308 0 0 1 -14.931 6.2v-2.272a1.75 1.75 0 1 0 -3.5 0v2.266a25.3 25.3 0 0 1 -14.931-6.2l1.594-1.594a1.75 1.75 0 0 0 -2.475-2.474l-1.594 1.594a25.3 25.3 0 0 1 -6.2-14.932h2.266a1.75 1.75 0 0 0 0-3.5h-2.265a25.214 25.214 0 0 1 6.188-14.944l1.609 1.61a1.75 1.75 0 1 0 2.475-2.475l-1.6-1.6a25.829 25.829 0 0 1 3.285-2.437 1.75 1.75 0 1 0 -1.854-2.971 29.262 29.262 0 0 0 -5.181 4.114l-.013.011-.01.011a28.888 28.888 0 0 0 -.1 40.753c.037.045.068.092.11.134s.09.073.134.11a28.859 28.859 0 0 0 40.629 0c.045-.037.093-.068.135-.11s.073-.09.11-.134a28.861 28.861 0 0 0 0-40.629c-.036-.049-.068-.097-.11-.139zm4.658 81.779c.022-.055.035-.112.052-.168s.036-.1.047-.159a1.75 1.75 0 0 0 0-.684c-.011-.055-.032-.106-.047-.159s-.03-.113-.052-.167a1.807 1.807 0 0 0 -.1-.185c-.022-.038-.039-.079-.064-.116a1.7 1.7 0 0 0 -.221-.271l-6.208-6.207a1.749 1.749 0 0 0 -2.474 2.474l3.223 3.223h-17.513v-21.741a1.75 1.75 0 0 0 -3.5 0v23.49a1.749 1.749 0 0 0 1.75 1.75h19.266l-3.223 3.22a1.749 1.749 0 1 0 2.474 2.474l6.213-6.204a1.7 1.7 0 0 0 .221-.271c.025-.037.042-.078.064-.117a1.776 1.776 0 0 0 .092-.182zm10.446-62c-.022.055-.035.113-.052.17a1.585 1.585 0 0 0 -.047.157 1.75 1.75 0 0 0 0 .684c.011.054.031.1.047.157s.03.114.052.17a1.952 1.952 0 0 0 .1.181c.022.04.039.081.065.119a1.7 1.7 0 0 0 .221.271l6.207 6.207a1.75 1.75 0 0 0 2.475-2.474l-3.227-3.222h17.516v21.74a1.75 1.75 0 1 0 3.5 0v-23.49a1.749 1.749 0 0 0 -1.75-1.75h-19.266l3.223-3.22a1.75 1.75 0 0 0 -2.475-2.474l-6.207 6.204a1.7 1.7 0 0 0 -.221.271 1.124 1.124 0 0 0 -.064.118 1.761 1.761 0 0 0 -.097.181z" fill="url(#linear-gradient)"/></svg>