<svg height="512" viewBox="0 0 512 512" width="512" xmlns="http://www.w3.org/2000/svg" xmlns:xlink="http://www.w3.org/1999/xlink"><linearGradient id="linear-gradient" gradientUnits="userSpaceOnUse" x1="35.539" x2="518.542" y1="525.847" y2="42.844"><stop offset="0" stop-color="#003f8a"/><stop offset=".518" stop-color="#00d7df"/><stop offset="1" stop-color="#006df0"/></linearGradient><linearGradient id="linear-gradient-2" x1="44.846" x2="527.849" xlink:href="#linear-gradient" y1="535.154" y2="52.151"/><linearGradient id="linear-gradient-3" x1="76.846" x2="559.849" xlink:href="#linear-gradient" y1="567.154" y2="84.151"/><linearGradient id="linear-gradient-4" x1="-147.154" x2="335.849" xlink:href="#linear-gradient" y1="343.154" y2="-139.849"/><linearGradient id="linear-gradient-5" x1="-131.154" x2="351.849" xlink:href="#linear-gradient" y1="359.154" y2="-123.849"/><linearGradient id="linear-gradient-6" x1="-115.154" x2="367.849" xlink:href="#linear-gradient" y1="375.154" y2="-107.849"/><linearGradient id="linear-gradient-7" x1="-33.154" x2="449.849" xlink:href="#linear-gradient" y1="457.154" y2="-25.849"/><linearGradient id="linear-gradient-8" x1="-17.154" x2="465.849" xlink:href="#linear-gradient" y1="473.154" y2="-9.849"/><linearGradient id="linear-gradient-9" x1="-13.154" x2="469.849" xlink:href="#linear-gradient" y1="477.154" y2="-5.849"/><linearGradient id="linear-gradient-10" x1="24.846" x2="507.849" xlink:href="#linear-gradient" y1="515.154" y2="32.151"/><path d="m500.73 241.549-76.73-56.269v-113.28a40.045 40.045 0 0 0 -40-40h-256a40.045 40.045 0 0 0 -40 40v113.28l-76.73 56.269a8 8 0 0 0 -3.27 6.451v224a8 8 0 0 0 8 8h480a8 8 0 0 0 8-8v-224a8 8 0 0 0 -3.27-6.451zm-336.871 112.101-139.859 102.563v-193.471zm-59.859-257.65h304v199.658l-73.654 47.875-73.616-53.984a7.994 7.994 0 0 0 -9.46 0l-73.616 53.984-73.654-47.875zm152 209.92 215.563 158.08h-431.126zm92.141 47.73 139.859-90.908v193.471zm133.79-106.05-57.931 37.658v-80.138zm-377.931-175.6a24.027 24.027 0 0 1 24-24h256a24.027 24.027 0 0 1 24 24v8h-304zm-16 213.258-57.931-37.658 57.931-42.48z" fill="url(#linear-gradient)"/><path d="m168 440h-72a8 8 0 0 0 0 16h72a8 8 0 0 0 0-16z" fill="url(#linear-gradient-2)"/><path d="m200 440h-8a8 8 0 0 0 0 16h8a8 8 0 0 0 0-16z" fill="url(#linear-gradient-3)"/><path d="m136 56h-8a8 8 0 0 0 0 16h8a8 8 0 0 0 0-16z" fill="url(#linear-gradient-4)"/><path d="m168 56h-8a8 8 0 0 0 0 16h8a8 8 0 0 0 0-16z" fill="url(#linear-gradient-5)"/><path d="m200 56h-8a8 8 0 0 0 0 16h8a8 8 0 0 0 0-16z" fill="url(#linear-gradient-6)"/><path d="m184 176h144a8 8 0 0 0 0-16h-144a8 8 0 0 0 0 16z" fill="url(#linear-gradient-7)"/><path d="m184 208h144a8 8 0 0 0 0-16h-144a8 8 0 0 0 0 16z" fill="url(#linear-gradient-8)"/><path d="m184 240h96a8 8 0 0 0 0-16h-96a8 8 0 0 0 0 16z" fill="url(#linear-gradient-9)"/><path d="m312 224h-8a8 8 0 0 0 0 16h8a8 8 0 0 0 0-16z" fill="url(#linear-gradient-10)"/></svg>