<?xml version="1.0" encoding="iso-8859-1"?>
<!-- Generator: Adobe Illustrator 19.0.0, SVG Export Plug-In . SVG Version: 6.00 Build 0)  -->
<svg version="1.1" id="Capa_1" xmlns="http://www.w3.org/2000/svg" xmlns:xlink="http://www.w3.org/1999/xlink" x="0px" y="0px"
	 viewBox="0 0 486.554 486.554" style="enable-background:new 0 0 486.554 486.554;" xml:space="preserve">
<linearGradient id="SVGID_1_" gradientUnits="userSpaceOnUse" x1="352.1452" y1="495.2796" x2="352.1452" y2="15.2796" gradientTransform="matrix(1 0 0 -1 0 488.5592)">
	<stop  offset="0" style="stop-color:#00EFD1"/>
	<stop  offset="1" style="stop-color:#00ACEA"/>
</linearGradient>
<path style="fill:url(#SVGID_1_);" d="M352.145,149.969c-28.63,0-51.84,23.21-51.84,51.84s23.21,51.84,51.84,51.84
	s51.84-23.21,51.84-51.84c0,0,0-0.001,0-0.001C403.974,173.182,380.771,149.979,352.145,149.969z M326.225,232.912
	c-5.726,0-10.368-4.642-10.368-10.368s4.642-10.368,10.368-10.368c5.726,0,10.368,4.642,10.368,10.368
	C336.576,228.262,331.944,232.894,326.225,232.912z M362.513,206.992c-11.452,0-20.736-9.284-20.736-20.736
	c0-11.452,9.284-20.736,20.736-20.736c11.452,0,20.736,9.284,20.736,20.736c0.003,11.449-9.275,20.733-20.724,20.736
	C362.521,206.992,362.517,206.992,362.513,206.992L362.513,206.992z"/>
<g>
	
		<linearGradient id="SVGID_2_" gradientUnits="userSpaceOnUse" x1="134.4192" y1="495.2796" x2="134.4192" y2="15.2796" gradientTransform="matrix(1 0 0 -1 0 488.5592)">
		<stop  offset="0" style="stop-color:#00EFD1"/>
		<stop  offset="1" style="stop-color:#00ACEA"/>
	</linearGradient>
	<path style="fill:url(#SVGID_2_);" d="M186.259,201.808c0-28.63-23.21-51.84-51.84-51.84c-28.63,0-51.84,23.21-51.84,51.84
		s23.21,51.84,51.84,51.84C163.045,253.637,186.249,230.434,186.259,201.808L186.259,201.808z M108.499,232.908
		c-5.726,0-10.368-4.642-10.368-10.368c0-5.726,4.642-10.368,10.368-10.368c5.726,0,10.368,4.642,10.368,10.368
		c-0.015,5.72-4.648,10.354-10.368,10.372L108.499,232.908z M144.787,206.988c-11.452,0-20.736-9.284-20.736-20.736
		s9.284-20.736,20.736-20.736s20.736,9.284,20.736,20.736v0c0.006,11.449-9.271,20.734-20.72,20.74c-0.005,0-0.011,0-0.016,0
		V206.988z"/>
	
		<linearGradient id="SVGID_3_" gradientUnits="userSpaceOnUse" x1="243.2769" y1="495.2796" x2="243.2769" y2="15.2796" gradientTransform="matrix(1 0 0 -1 0 488.5592)">
		<stop  offset="0" style="stop-color:#00EFD1"/>
		<stop  offset="1" style="stop-color:#00ACEA"/>
	</linearGradient>
	<path style="fill:url(#SVGID_3_);" d="M243.282,0.002C108.928-0.005,0.007,108.905,0,243.259
		c-0.003,64.529,25.632,126.416,71.264,172.042c95.004,95.003,249.035,95.002,344.038-0.002s95.002-249.035-0.002-344.038
		C369.779,25.488,307.838-0.172,243.282,0.002L243.282,0.002z M243.282,466.558c-123.116,0-223.278-100.162-223.278-223.278
		S120.166,20.002,243.282,20.002S466.56,120.164,466.56,243.28S366.398,466.558,243.282,466.558z"/>
	
		<linearGradient id="SVGID_4_" gradientUnits="userSpaceOnUse" x1="242.5833" y1="495.2796" x2="242.5833" y2="15.2796" gradientTransform="matrix(1 0 0 -1 0 488.5592)">
		<stop  offset="0" style="stop-color:#00EFD1"/>
		<stop  offset="1" style="stop-color:#00ACEA"/>
	</linearGradient>
	<path style="fill:url(#SVGID_4_);" d="M288.382,326.765c-12.92-10.046-28.834-15.474-45.2-15.415
		c-35.113,0.071-65.373,24.736-72.523,59.113l19.6,4c5.225-25.079,27.306-43.066,52.923-43.113
		c11.934-0.047,23.539,3.907,32.962,11.23c9.24,7.154,15.931,17.092,19.084,28.344l19.279-5.319
		C310.196,350.188,301.035,336.57,288.382,326.765L288.382,326.765z"/>
	
		<linearGradient id="SVGID_5_" gradientUnits="userSpaceOnUse" x1="107.4497" y1="495.2796" x2="107.4497" y2="15.2796" gradientTransform="matrix(1 0 0 -1 0 488.5592)">
		<stop  offset="0" style="stop-color:#00EFD1"/>
		<stop  offset="1" style="stop-color:#00ACEA"/>
	</linearGradient>
	<path style="fill:url(#SVGID_5_);" d="M130.182,132.873l-1.689-19.929c-17.669,1.483-33.738,10.82-43.776,25.436l16.465,11.36
		C107.83,140.053,118.475,133.861,130.182,132.873z"/>
	
		<linearGradient id="SVGID_6_" gradientUnits="userSpaceOnUse" x1="379.1143" y1="495.2796" x2="379.1143" y2="15.2796" gradientTransform="matrix(1 0 0 -1 0 488.5592)">
		<stop  offset="0" style="stop-color:#00EFD1"/>
		<stop  offset="1" style="stop-color:#00ACEA"/>
	</linearGradient>
	<path style="fill:url(#SVGID_6_);" d="M358.07,112.944l-1.688,19.929c11.709,0.987,22.357,7.178,29.006,16.867l16.458-11.36
		C391.809,123.763,375.739,114.426,358.07,112.944L358.07,112.944z"/>
</g>
<g>
</g>
<g>
</g>
<g>
</g>
<g>
</g>
<g>
</g>
<g>
</g>
<g>
</g>
<g>
</g>
<g>
</g>
<g>
</g>
<g>
</g>
<g>
</g>
<g>
</g>
<g>
</g>
<g>
</g>
</svg>
