<?xml version="1.0" encoding="iso-8859-1"?>
<!-- Generator: Adobe Illustrator 19.0.0, SVG Export Plug-In . SVG Version: 6.00 Build 0)  -->
<svg version="1.1" id="Capa_1" xmlns="http://www.w3.org/2000/svg" xmlns:xlink="http://www.w3.org/1999/xlink" x="0px" y="0px"
	 viewBox="0 0 509.593 509.593" style="enable-background:new 0 0 509.593 509.593;" xml:space="preserve">
<linearGradient id="SVGID_1_" gradientUnits="userSpaceOnUse" x1="381.6001" y1="506.7927" x2="381.6001" y2="26.7927" gradientTransform="matrix(1 0 0 -1 0 511.5854)">
	<stop  offset="0" style="stop-color:#00EFD1"/>
	<stop  offset="1" style="stop-color:#00ACEA"/>
</linearGradient>
<path style="fill:url(#SVGID_1_);" d="M381.627,140.638c-26.726-0.015-48.404,21.639-48.419,48.365
	c-0.015,26.726,21.639,48.404,48.365,48.419c26.726,0.015,48.404-21.639,48.419-48.365c0-0.018,0-0.035,0-0.053
	c0.008-26.704-21.634-48.358-48.338-48.366C381.645,140.638,381.636,140.638,381.627,140.638z M357.418,218.038
	c-5.339-0.014-9.656-4.355-9.642-9.694s4.355-9.656,9.694-9.642c5.339,0.014,9.656,4.354,9.642,9.694
	c0.008,5.315-4.295,9.63-9.61,9.638c-0.028,0-0.056,0-0.084,0V218.038z M391.318,193.881c-10.693,0.013-19.372-8.646-19.385-19.339
	s8.646-19.372,19.339-19.385c10.692-0.013,19.371,8.644,19.385,19.336c0.014,10.691-8.641,19.37-19.332,19.384
	c-0.001,0-0.003,0-0.004,0L391.318,193.881z"/>
<g>
	
		<linearGradient id="SVGID_2_" gradientUnits="userSpaceOnUse" x1="178.3901" y1="506.7927" x2="178.3901" y2="26.7927" gradientTransform="matrix(1 0 0 -1 0 511.5854)">
		<stop  offset="0" style="stop-color:#00EFD1"/>
		<stop  offset="1" style="stop-color:#00ACEA"/>
	</linearGradient>
	<path style="fill:url(#SVGID_2_);" d="M178.416,140.638c-26.726-0.014-48.404,21.64-48.418,48.366s21.64,48.404,48.366,48.418
		s48.404-21.64,48.418-48.366c0-0.017,0-0.035,0-0.052c0.008-26.704-21.634-48.358-48.338-48.366
		C178.435,140.638,178.425,140.638,178.416,140.638z M154.207,218.038c-5.339-0.014-9.656-4.355-9.642-9.694
		c0.014-5.339,4.355-9.656,9.694-9.642c5.339,0.014,9.656,4.354,9.642,9.694c0.008,5.315-4.293,9.63-9.608,9.638
		c-0.029,0-0.058,0-0.086,0V218.038z M188.107,193.881c-10.693,0.013-19.372-8.646-19.385-19.339s8.646-19.372,19.339-19.385
		c10.692-0.013,19.371,8.644,19.385,19.336c0.014,10.692-8.642,19.37-19.334,19.384c-0.001,0-0.001,0-0.002,0L188.107,193.881z"/>
	
		<linearGradient id="SVGID_3_" gradientUnits="userSpaceOnUse" x1="254.7964" y1="506.7927" x2="254.7964" y2="26.7927" gradientTransform="matrix(1 0 0 -1 0 511.5854)">
		<stop  offset="0" style="stop-color:#00EFD1"/>
		<stop  offset="1" style="stop-color:#00ACEA"/>
	</linearGradient>
	<path style="fill:url(#SVGID_3_);" d="M280.021,0.002c-51.631-0.2-101.765,17.337-142.013,49.677
		c-36.648,29.315-63.397,69.187-76.624,114.214c-11.235-2.815-23.066-2.084-33.87,2.091c-12.724,4.82-19.132,19.042-14.312,31.767
		c0.443,1.17,0.975,2.304,1.59,3.393l15.658,27.99l2.887,6.359c7.249,15.935,5.235,34.554-5.252,48.571
		c-4.015,5.337-7.38,11.135-10.022,17.269l-6.171,14.36c-7.865,18.371-11.192,38.364-9.7,58.292l0.048,0.76
		c0,0.051,0.007,0.1,0.011,0.152c2.039,27.263,12.515,53.215,29.972,74.254c1.328,1.62,2.624,3.173,3.887,4.687l0.962,1.155
		c9.133,10.982,21.616,18.667,35.534,21.876l3.185,0.731c13.123,2.988,26.888,1.021,38.649-5.524l0.1-0.055l0.83-0.474
		c10.66-5.364,15.988-17.44,18.44-25.423c4.987,5.777,12.342,6.815,17.55,7.09c6.79,0.318,9-0.063,12.957-0.883l1.394-0.285
		c0.36-0.072,0.717-0.164,1.067-0.275c10.718-3.4,18.6-8.322,23.587-14.668c115.648,49.492,249.521-4.137,299.013-119.785
		c12.117-28.314,18.366-58.791,18.37-89.589C507.745,101.96,405.79,0.005,280.021,0.002L280.021,0.002z M185.555,346.202
		c-6.283-3.9-13.359-6.345-20.71-7.154c-13.1-1.572-25.64,1.864-35.3,9.623l12.523,15.608c10.943-8.787,26.218-5.765,33.262-0.788
		c0.333,0.648,0.719,1.267,1.154,1.852c1.763,2.752,2.976,5.819,3.572,9.032c1.039,5.57,0.029,11.328-2.843,16.212
		c-9.788-2.21-19.847-2.972-29.856-2.26l1.991,19.9c6.443-0.646,19.1,0.414,24.838,2.236c1.479,2.601,2.326,5.512,2.475,8.5
		c0.011,0.816-0.097,1.628-0.319,2.413l-0.038,0.135c-1.54,5.517-8.942,9.028-15.087,11.038l-0.961,0.2
		c-2.81,0.582-3.4,0.7-7.905,0.491c-0.902-0.037-1.801-0.131-2.691-0.282c3.482-9.725,4.254-15.305,0-19.809
		c-2.685-2.856-6.763-3.933-10.508-2.774c-8.578,2.586-15.69,8.63-19.625,16.678l-2.748,5.6c-0.43,0.874-0.729,1.806-0.888,2.767
		c-0.862,5.18-4.556,15.866-9.582,18.3c-0.2,0.1-0.4,0.2-0.6,0.316l-1.042,0.6c-7.435,4.125-16.13,5.362-24.42,3.473l-3.165-0.727
		c-9.644-2.223-18.292-7.548-24.617-15.16l-0.991-1.188c-1.228-1.472-2.488-2.984-3.816-4.6c-14.815-17.851-23.712-39.868-25.456-63
		l-0.047-0.751c0-0.046-0.003-0.092-0.009-0.138c-1.261-16.732,1.528-33.521,8.133-48.946l6.159-14.335
		c2.012-4.677,4.576-9.096,7.637-13.165c14.885-19.865,17.752-46.266,7.48-68.863l-3.063-6.751
		c-0.116-0.254-0.242-0.504-0.379-0.749l-15.9-28.414c-0.397-0.69-0.607-1.47-0.612-2.266c0.005-1.967,1.232-3.724,3.078-4.405
		c9.417-3.691,19.958-3.21,29,1.323c3.698,1.86,7.028,4.377,9.825,7.428c0.278,0.3,0.574,0.584,0.886,0.849
		c1.977,1.785,3.821,3.712,5.516,5.767c11.372,13.908,14.8,32.685,9.075,49.714l-2.073,6.273c-1.753,5.23,1.066,10.89,6.296,12.643
		c3.067,1.028,6.442,0.507,9.056-1.399c14.641-9.395,32.986-10.924,48.98-4.081c11.71,4.956,20.735,12.427,26.817,22.193
		c3.14,5.166,3.615,11.525,1.276,17.1c-14.294-5.477-35.538-8.1-50.108,0.958l10.567,16.99c9.39-5.839,28.766-2.007,37.4,3.055
		l1.095,0.652c0.667,0.46,1.393,0.83,2.157,1.1c1.056,0.536,6.914,3.581,7.948,12.581h-0.006c0.405,3.089-0.64,6.193-2.831,8.408
		V346.202z M189.632,337.865l-0.069,0.008L189.632,337.865z M280.021,435.452c-28.711,0.077-57.121-5.858-83.4-17.423
		c-0.224-5.129-1.482-10.159-3.7-14.789c8.057-11.999,9.745-27.177,4.52-40.653c2.132-1.885,4.029-4.02,5.649-6.359
		c7.647,6.781,16.15,12.53,25.292,17.1c15.967,7.973,33.578,12.096,51.425,12.04c54.912-0.116,102.216-38.73,113.324-92.507
		l-19.6-3.984c-9.191,44.472-48.313,76.4-93.724,76.491c-14.741,0.051-29.289-3.349-42.48-9.928
		c-11.271-5.632-21.326-13.425-29.591-22.935c-1.47-7.615-5.309-14.57-10.97-19.872l0.977-2.354
		c4.876-11.57,3.869-24.782-2.706-35.478c-8.193-13.158-20.644-23.55-36.029-30.061c-15.113-6.502-32.005-7.602-47.834-3.115
		c2.345-19.561-3.409-39.23-15.927-54.442c-2.291-2.759-4.774-5.352-7.431-7.761c-2.45-2.6-5.149-4.955-8.057-7.03
		c11.742-42.237,36.488-79.704,70.727-107.083c36.713-29.497,82.441-45.491,129.535-45.307
		c114.542,0,207.727,93.186,207.727,207.727s-93.185,207.726-207.727,207.726L280.021,435.452z M198.321,336.852l0.025,0.024
		l0.018-0.008l-0.043,0.035v-0.018l0.024-0.009L198.321,336.852z"/>
	
		<linearGradient id="SVGID_4_" gradientUnits="userSpaceOnUse" x1="160.9051" y1="506.7927" x2="160.9051" y2="26.7927" gradientTransform="matrix(1 0 0 -1 0 511.5854)">
		<stop  offset="0" style="stop-color:#00EFD1"/>
		<stop  offset="1" style="stop-color:#00ACEA"/>
	</linearGradient>
	<path style="fill:url(#SVGID_4_);" d="M162.431,119.524c8.638-4.055,18.539-4.492,27.5-1.212l6.824-18.8
		c-29.04-10.553-61.136,4.427-71.7,33.463l18.8,6.825C147.087,130.829,153.777,123.527,162.431,119.524L162.431,119.524z"/>
	
		<linearGradient id="SVGID_5_" gradientUnits="userSpaceOnUse" x1="399.0686" y1="506.7927" x2="399.0686" y2="26.7927" gradientTransform="matrix(1 0 0 -1 0 511.5854)">
		<stop  offset="0" style="stop-color:#00EFD1"/>
		<stop  offset="1" style="stop-color:#00ACEA"/>
	</linearGradient>
	<path style="fill:url(#SVGID_5_);" d="M363.033,99.859l7.018,18.728c18.593-6.958,39.312,2.436,46.331,21.006l18.722-7.032
		C424.193,103.666,391.964,89.042,363.033,99.859L363.033,99.859z"/>
	
		<linearGradient id="SVGID_6_" gradientUnits="userSpaceOnUse" x1="60.0581" y1="506.7927" x2="60.0581" y2="26.7927" gradientTransform="matrix(1 0 0 -1 0 511.5854)">
		<stop  offset="0" style="stop-color:#00EFD1"/>
		<stop  offset="1" style="stop-color:#00ACEA"/>
	</linearGradient>
	<path style="fill:url(#SVGID_6_);" d="M66.436,486.199c-26.033-8.186-40.2-28.735-46.322-40.255l-17.658,9.39
		c7.562,14.221,25.149,39.62,57.98,49.944c9.143,2.873,18.672,4.328,28.256,4.315c9.811-0.026,19.567-1.462,28.968-4.266
		l-5.7-19.172C101.246,489.336,84.647,491.927,66.436,486.199L66.436,486.199z"/>
</g>
<g>
</g>
<g>
</g>
<g>
</g>
<g>
</g>
<g>
</g>
<g>
</g>
<g>
</g>
<g>
</g>
<g>
</g>
<g>
</g>
<g>
</g>
<g>
</g>
<g>
</g>
<g>
</g>
<g>
</g>
</svg>
